<svg id="圖層_1" data-name="圖層 1" xmlns="http://www.w3.org/2000/svg" viewBox="0 0 300 300"><defs><style>.cls-1{fill:#4ecdc4;}.cls-2{fill:#fff;}</style></defs><title>工作區域 1</title><circle class="cls-1" cx="150" cy="150" r="150"/><path class="cls-2" d="M150,120.28a30.64,30.64,0,1,0,30.64,30.64A30.64,30.64,0,0,0,150,120.28Zm81.7-30.64H207.19a9.1,9.1,0,0,1-8.07-5.81l-6.33-19A9.12,9.12,0,0,0,184.72,59H115.28a9.12,9.12,0,0,0-8.07,5.81l-6.33,19a9.1,9.1,0,0,1-8.07,5.81H68.3a20.49,20.49,0,0,0-20.43,20.43V202A20.48,20.48,0,0,0,68.3,222.4H231.7A20.48,20.48,0,0,0,252.13,202V110.07A20.49,20.49,0,0,0,231.7,89.64ZM150,202a51.07,51.07,0,1,1,51.06-51.06A51.06,51.06,0,0,1,150,202Zm74.55-77.63a7.15,7.15,0,1,1,7.15-7.15A7.15,7.15,0,0,1,224.55,124.35Z"/></svg>