<svg id="圖層_1" data-name="圖層 1" xmlns="http://www.w3.org/2000/svg" viewBox="0 0 200 200"><defs><style>.cls-1{fill:#fff;stroke:#333;stroke-miterlimit:10;stroke-width:3px;}</style></defs><title>工作區域 1</title><path class="cls-1" d="M109.22,12.39,130.76,56a10.27,10.27,0,0,0,7.75,5.62l48.16,7a10.28,10.28,0,0,1,5.7,17.54l-34.85,34a10.3,10.3,0,0,0-3,9.1l8.23,48a10.29,10.29,0,0,1-14.92,10.85l-43.08-22.65a10.33,10.33,0,0,0-9.58,0L52.13,188.1a10.29,10.29,0,0,1-14.92-10.85l8.23-48a10.3,10.3,0,0,0-3-9.1L7.63,86.2a10.28,10.28,0,0,1,5.7-17.54l48.16-7A10.27,10.27,0,0,0,69.24,56L90.78,12.39A10.28,10.28,0,0,1,109.22,12.39Z"/></svg>